<svg xmlns="http://www.w3.org/2000/svg" width="32" height="32" viewBox="0 0 32 32"><g transform="translate(.5 -1021.766)"><path fill="#fd5b6a" d="m 9.9997305,1043.2551 6.0002715,-3.0501 0,3.0501 0,3.05 -6.0002715,3.0501 z" color="#000" overflow="visible" style="isolation:auto;mix-blend-mode:normal"/><path fill="#fe2b70" fill-rule="evenodd" d="m 3.9993885,1040.0069 6.000329,3.2482 6.0003345,-3.2482 -6.0003345,-3.2483 z"/><path fill="#fd7867" style="isolation:auto;mix-blend-mode:normal" d="m 9.9997305,1049.3552 -6.000259,-3.0501 0,-3.05 0,-3.0501 6.000259,3.0501 z" color="#000" overflow="visible"/><path fill="#01d1ff" style="isolation:auto;mix-blend-mode:normal" d="m 22.000284,1043.2551 6.000272,-3.0501 0,3.0501 0,3.05 -6.000272,3.0501 z" color="#000" overflow="visible"/><path fill="#00a5ff" fill-rule="evenodd" d="m 15.999943,1040.0069 6.000328,3.2482 6.000335,-3.2482 -6.000335,-3.2483 z"/><path fill="#00e4ff" d="m 22.000284,1049.3552 -6.000259,-3.0501 0,-3.05 0,-3.0501 6.000259,3.0501 z" color="#000" overflow="visible" style="isolation:auto;mix-blend-mode:normal"/><path fill="#f8d459" style="isolation:auto;mix-blend-mode:normal" d="m 16.000008,1033.7621 6.000271,-3.0501 0,3.0501 0,3.05 -6.000271,3.0501 z" color="#000" overflow="visible"/><path fill="#faa660" fill-rule="evenodd" d="m 9.9996657,1030.5139 6.0003293,3.2482 6.000334,-3.2482 -6.000334,-3.2483 z"/><path fill="#f6ec54" d="m 16.000008,1039.8622 -6.0002593,-3.0501 0,-3.05 0,-3.0501 6.0002593,3.0501 z" color="#000" overflow="visible" style="isolation:auto;mix-blend-mode:normal"/><path fill="#fff" style="isolation:auto;mix-blend-mode:normal" d="m 4,19.84375 0,1.513672 5,2.542969 0,4.583984 1,0.507813 0,-6.09961 -6,-3.048828 z" color="#000" overflow="visible" transform="translate(0 1020.362)"/><path fill="none" stroke="#000" stroke-linecap="round" stroke-linejoin="round" d="m 3.9994715,1041.7301 0,-1.5251 6.000259,3.0501 0,6.1001 -6.000259,-3.0501 0,-0.3812 0,-0.3813 0,-0.3812 m 0,-1.525 0,-0.3813" color="#000" overflow="visible" style="isolation:auto;mix-blend-mode:normal"/><path fill="#fff" style="isolation:auto;mix-blend-mode:normal" d="m 16,19.84375 -6,3.048828 0,6.09961 1,-0.507813 0,-4.583984 5,-2.542969 0,-1.513672 z" color="#000" overflow="visible" transform="translate(0 1020.362)"/><path fill="none" stroke="#000" stroke-linecap="round" stroke-linejoin="round" style="isolation:auto;mix-blend-mode:normal" d="m 9.9997305,1043.2551 6.0002715,-3.0501 0,3.0501 0,3.05 -6.0002715,3.0501 z" color="#000" overflow="visible"/><path fill="#fff" fill-rule="evenodd" d="m 10,16.396484 -1.25,0.675782 4.75,2.572265 -4.75,2.572266 1.25,0.675781 6,-3.248047 -6,-3.248047 z" transform="translate(0 1020.362)"/><path fill="none" stroke="#000" stroke-linecap="round" stroke-linejoin="round" d="m 3.9993885,1040.0069 6.000329,3.2482 6.0003345,-3.2482 -6.0003345,-3.2483 z"/><g transform="translate(12)"><path fill="#fff" style="isolation:auto;mix-blend-mode:normal" d="M4 19.84375l0 1.513672 5 2.542969 0 4.583984 1 .507813 0-6.09961-6-3.048828zM16 19.84375l-6 3.048828 0 6.09961 1-.507813 0-4.583984 5-2.542969 0-1.513672z" color="#000" overflow="visible" transform="translate(0 1020.362)"/><path fill="#fff" fill-rule="evenodd" d="m 10,16.396484 -1.25,0.675782 4.75,2.572265 -4.75,2.572266 1.25,0.675781 6,-3.248047 -6,-3.248047 z" transform="translate(0 1020.362)"/></g><path fill="none" stroke="#000" stroke-linecap="round" stroke-linejoin="round" d="m 22.000284,1043.2551 6.000272,-3.0501 0,3.0501 0,3.05 -6.000272,3.0501 z" color="#000" overflow="visible" style="isolation:auto;mix-blend-mode:normal"/><path fill="none" stroke="#000" stroke-linecap="round" stroke-linejoin="round" d="m 15.999943,1040.0069 6.000328,3.2482 6.000335,-3.2482 -6.000335,-3.2483 z"/><path fill="none" stroke="#000" stroke-linecap="round" stroke-linejoin="round" style="isolation:auto;mix-blend-mode:normal" d="m 22.000284,1049.3552 -6.000259,-3.0501 0,-3.05 0,-3.0501 6.000259,3.0501 z" color="#000" overflow="visible"/><g transform="translate(6 -9.493)"><path fill="#fff" d="M4 19.84375l0 1.513672 5 2.542969 0 4.583984 1 .507813 0-6.09961-6-3.048828zM16 19.84375l-6 3.048828 0 6.09961 1-.507813 0-4.583984 5-2.542969 0-1.513672z" color="#000" overflow="visible" transform="translate(0 1020.362)" style="isolation:auto;mix-blend-mode:normal"/><path fill="#fff" fill-rule="evenodd" d="m 10,16.396484 -1.25,0.675782 4.75,2.572265 -4.75,2.572266 1.25,0.675781 6,-3.248047 -6,-3.248047 z" transform="translate(0 1020.362)"/></g><path fill="none" stroke="#000" stroke-linecap="round" stroke-linejoin="round" style="isolation:auto;mix-blend-mode:normal" d="m 16.000008,1033.7621 6.000271,-3.0501 0,3.0501 0,3.05 -6.000271,3.0501 z" color="#000" overflow="visible"/><path fill="none" stroke="#000" stroke-linecap="round" stroke-linejoin="round" d="m 17.500078,1028.0777 -0.750041,-0.4061 -0.750042,-0.406 -6.0003293,3.2483 6.0003293,3.2482 6.000334,-3.2482 -0.750042,-0.406 -0.750042,-0.4061 m -1.125062,-0.609 -0.375021,-0.2031"/><path fill="none" stroke="#000" stroke-linecap="round" stroke-linejoin="round" d="m 16.000008,1039.8622 -6.0002593,-3.0501 0,-3.05 0,-3.0501 6.0002593,3.0501 z" color="#000" overflow="visible" style="isolation:auto;mix-blend-mode:normal"/></g></svg>