<?xml version="1.0" encoding="utf-8"?>
<!-- Generator: Adobe Illustrator 23.1.1, SVG Export Plug-In . SVG Version: 6.00 Build 0)  -->
<svg version="1.1" id="Ebene_1" xmlns="http://www.w3.org/2000/svg" xmlns:xlink="http://www.w3.org/1999/xlink" x="0px" y="0px"
	 viewBox="0 0 28.6 28.6" style="enable-background:new 0 0 28.6 28.6;" xml:space="preserve">
<style type="text/css">
	.st0{fill:#A0A1A2;}
</style>
<g>
	<path class="st0" d="M28.51,10.68c0,0-2.68-3.58-2.68-3.58c0,0-0.06-0.1-0.24-0.16L14.43,3.79c-0.08-0.02-0.17-0.02-0.25,0
		L3.01,6.94c0,0-0.15,0.04-0.24,0.17c-0.04,0.05-2.68,3.57-2.68,3.57C0,10.8-0.02,10.96,0.02,11.1c0.04,0.14,0.15,0.25,0.29,0.3
		l2.36,0.8v6.41c0,0.19,0.11,0.35,0.29,0.43l11.16,4.61c0.03,0.01,0.08,0.04,0.18,0.04c0.1,0,0.18-0.04,0.18-0.04l11.16-4.61
		c0.17-0.07,0.29-0.24,0.29-0.43V12.2l2.36-0.8c0.14-0.05,0.25-0.16,0.29-0.3C28.62,10.96,28.6,10.8,28.51,10.68z M1.21,10.73
		l2.11-2.81l0.85,0.23l4.79,1.32l4.53,1.25L10.84,14L1.21,10.73z M13.84,22.53L3.6,18.3v-5.79l7.25,2.46
		c0.05,0.02,0.1,0.02,0.15,0.02c0.14,0,0.27-0.06,0.36-0.17l2.49-3.06L13.84,22.53L13.84,22.53z M14.3,9.98l-9.45-2.6l9.45-2.67
		l9.45,2.67L14.3,9.98z M25,18.3l-10.24,4.23V11.76l2.49,3.06c0.09,0.11,0.22,0.17,0.36,0.17c0.05,0,0.1-0.01,0.15-0.02L25,12.51
		L25,18.3L25,18.3z M17.76,14l-2.66-3.28l10.18-2.8l2.11,2.81L17.76,14z"/>
</g>
</svg>
